<svg width="163" height="30" viewBox="0 0 163 30" fill="none" xmlns="http://www.w3.org/2000/svg">
<path d="M19.4807 29.3737H0V0.40404H19.4807V6.20202H5.68766V12H15.0218V17.798H5.68766V23.5758H19.4807V29.3737Z" fill="#313628"/>
<path d="M45.4418 26.404C44.1207 27.5623 42.6409 28.4512 41.0027 29.0707C39.3644 29.6902 37.6667 30 35.9095 30C34.5619 30 33.2606 29.8182 32.0055 29.4545C30.7636 29.1044 29.5943 28.6061 28.4978 27.9596C27.4144 27.2997 26.4235 26.5118 25.5251 25.596C24.6267 24.6801 23.8538 23.67 23.2064 22.5657C22.5723 21.4478 22.0768 20.2559 21.7201 18.9899C21.3766 17.7104 21.2049 16.3838 21.2049 15.0101C21.2049 13.6364 21.3766 12.3098 21.7201 11.0303C22.0768 9.75084 22.5723 8.55892 23.2064 7.45455C23.8538 6.3367 24.6267 5.31987 25.5251 4.40404C26.4235 3.48822 27.4144 2.70707 28.4978 2.06061C29.5943 1.40067 30.7636 0.895623 32.0055 0.545455C33.2606 0.181818 34.5619 0 35.9095 0C37.6667 0 39.3644 0.309764 41.0027 0.929293C42.6409 1.53535 44.1207 2.42424 45.4418 3.59596L42.4295 8.64646C41.5972 7.73064 40.6129 7.0303 39.4767 6.54545C38.3405 6.04714 37.1515 5.79798 35.9095 5.79798C34.6544 5.79798 33.4786 6.0404 32.382 6.52525C31.2854 7.0101 30.3276 7.67003 29.5085 8.50505C28.6893 9.3266 28.0419 10.303 27.5663 11.4343C27.0907 12.5522 26.8529 13.7441 26.8529 15.0101C26.8529 16.2761 27.0907 17.468 27.5663 18.5859C28.0419 19.6902 28.6893 20.6599 29.5085 21.4949C30.3276 22.33 31.2854 22.9899 32.382 23.4747C33.4786 23.9596 34.6544 24.202 35.9095 24.202C37.1515 24.202 38.3405 23.9596 39.4767 23.4747C40.6129 22.9764 41.5972 22.2694 42.4295 21.3535L45.4418 26.404Z" fill="#313628"/>
<path d="M75.7628 15.0101C75.7628 16.3838 75.5844 17.7104 75.2277 18.9899C74.8842 20.2559 74.3954 21.4478 73.7612 22.5657C73.1271 23.67 72.3608 24.6801 71.4624 25.596C70.564 26.5118 69.5731 27.2997 68.4897 27.9596C67.4064 28.6061 66.2371 29.1044 64.982 29.4545C63.7269 29.8182 62.4255 30 61.0779 30C59.7303 30 58.429 29.8182 57.1739 29.4545C55.932 29.1044 54.7627 28.6061 53.6661 27.9596C52.5828 27.2997 51.5919 26.5118 50.6935 25.596C49.7951 24.6801 49.0222 23.67 48.3748 22.5657C47.7407 21.4478 47.2452 20.2559 46.8885 18.9899C46.545 17.7104 46.3733 16.3838 46.3733 15.0101C46.3733 13.6364 46.545 12.3098 46.8885 11.0303C47.2452 9.75084 47.7407 8.55892 48.3748 7.45455C49.0222 6.35017 49.7951 5.34007 50.6935 4.42424C51.5919 3.50842 52.5828 2.72727 53.6661 2.08081C54.7627 1.43434 55.932 0.936027 57.1739 0.585859C58.429 0.222222 59.7303 0.040404 61.0779 0.040404C62.4255 0.040404 63.7269 0.222222 64.982 0.585859C66.2371 0.936027 67.4064 1.43434 68.4897 2.08081C69.5731 2.72727 70.564 3.50842 71.4624 4.42424C72.3608 5.34007 73.1271 6.35017 73.7612 7.45455C74.3954 8.55892 74.8842 9.75084 75.2277 11.0303C75.5844 12.3098 75.7628 13.6364 75.7628 15.0101ZM70.1148 15.0101C70.1148 13.7441 69.877 12.5522 69.4013 11.4343C68.9257 10.303 68.2783 9.3266 67.4592 8.50505C66.6533 7.67003 65.6954 7.0101 64.5857 6.52525C63.4891 6.0404 62.3198 5.79798 61.0779 5.79798C59.8228 5.79798 58.647 6.0404 57.5504 6.52525C56.4538 7.0101 55.496 7.67003 54.6768 8.50505C53.8577 9.3266 53.2103 10.303 52.7347 11.4343C52.2591 12.5522 52.0213 13.7441 52.0213 15.0101C52.0213 16.2761 52.2591 17.468 52.7347 18.5859C53.2103 19.6902 53.8577 20.6599 54.6768 21.4949C55.496 22.33 56.4538 22.9899 57.5504 23.4747C58.647 23.9596 59.8228 24.202 61.0779 24.202C62.3198 24.202 63.4891 23.9596 64.5857 23.4747C65.6954 22.9899 66.6533 22.33 67.4592 21.4949C68.2783 20.6599 68.9257 19.6902 69.4013 18.5859C69.877 17.468 70.1148 16.2761 70.1148 15.0101Z" fill="#313628"/>
<path d="M85.196 6.20202V17.798H90.8837C91.6631 17.798 92.3964 17.6498 93.0834 17.3535C93.7704 17.0438 94.3716 16.6263 94.8868 16.101C95.4021 15.5758 95.805 14.963 96.0957 14.2626C96.3996 13.5488 96.5515 12.7946 96.5515 12C96.5515 11.2054 96.3996 10.4579 96.0957 9.75758C95.805 9.04377 95.4021 8.42424 94.8868 7.89899C94.3716 7.37374 93.7704 6.96296 93.0834 6.66667C92.3964 6.3569 91.6631 6.20202 90.8837 6.20202H85.196ZM85.196 29.3737H79.5083V0.40404H90.8837C91.9274 0.40404 92.9315 0.545455 93.8959 0.828283C94.8604 1.09764 95.7588 1.48822 96.5911 2C97.4367 2.49832 98.203 3.10438 98.89 3.81818C99.5902 4.51852 100.185 5.29966 100.674 6.16162C101.176 7.02357 101.559 7.94613 101.823 8.92929C102.1 9.91246 102.239 10.936 102.239 12C102.239 12.9966 102.114 13.9663 101.863 14.9091C101.625 15.8519 101.275 16.7475 100.812 17.596C100.363 18.4444 99.8082 19.2256 99.1476 19.9394C98.487 20.6532 97.7472 21.2727 96.928 21.798L100.079 29.3737H94.0347L91.5574 23.5354L85.196 23.5758V29.3737Z" fill="#313628"/>
<path d="M111.672 29.3737H105.985V0.40404H111.672V29.3737Z" fill="#313628"/>
<path d="M139.734 14.8889C139.734 16.2222 139.562 17.5084 139.219 18.7475C138.889 19.9731 138.413 21.1246 137.792 22.202C137.171 23.266 136.431 24.2424 135.572 25.1313C134.714 26.0067 133.756 26.7609 132.699 27.3939C131.642 28.0269 130.506 28.5185 129.29 28.8687C128.088 29.2054 126.833 29.3737 125.525 29.3737H116.964V0.40404H125.525C126.833 0.40404 128.088 0.579125 129.29 0.929293C130.506 1.26599 131.642 1.75084 132.699 2.38384C133.756 3.01683 134.714 3.77778 135.572 4.66667C136.431 5.54209 137.171 6.51852 137.792 7.59596C138.413 8.65993 138.889 9.81145 139.219 11.0505C139.562 12.2761 139.734 13.5556 139.734 14.8889ZM134.046 14.8889C134.046 13.6902 133.822 12.5657 133.373 11.5152C132.937 10.4646 132.329 9.54882 131.549 8.76768C130.783 7.97306 129.878 7.3468 128.834 6.88889C127.804 6.43098 126.701 6.20202 125.525 6.20202H122.691V23.5758H125.525C126.701 23.5758 127.804 23.3535 128.834 22.9091C129.878 22.4512 130.783 21.8316 131.549 21.0505C132.329 20.2559 132.937 19.3333 133.373 18.2828C133.822 17.2189 134.046 16.0875 134.046 14.8889Z" fill="#313628"/>
<path d="M163 29.3737H143.519V0.40404H163V6.20202H149.207V12H158.541V17.798H149.207V23.5758H163V29.3737Z" fill="#313628"/>
</svg>
