<svg width="32" height="32" viewBox="0 0 32 32" fill="none" xmlns="http://www.w3.org/2000/svg">
<path d="M0 8C0 3.58172 3.58172 0 8 0H24C28.4183 0 32 3.58172 32 8V24C32 28.4183 28.4183 32 24 32H8C3.58172 32 0 28.4183 0 24V8Z" fill="#313628"/>
<path fill-rule="evenodd" clip-rule="evenodd" d="M16.9551 9.24297H12.3575V11.1756H15.4688V13.1082H12.3575V15.0339H17.7532C18.1011 15.0339 18.436 15.0812 18.7575 15.1755C19.0789 15.2653 19.3784 15.3955 19.6559 15.5661C19.9377 15.7322 20.1932 15.934 20.4221 16.1719C20.6555 16.4053 20.8536 16.6659 21.0165 16.9532C21.1839 17.2404 21.3116 17.548 21.3997 17.8757C21.4921 18.2034 21.5383 18.5448 21.5383 18.8994C21.5383 19.2316 21.4967 19.5549 21.413 19.8691C21.3337 20.1833 21.2169 20.4818 21.0628 20.7646C20.913 21.0474 20.7283 21.3079 20.5081 21.5459C20.2879 21.7838 20.0412 21.9902 19.7682 22.1653L20.8183 24.6903H18.8037L17.9778 22.7444L15.8574 22.7578V24.6903H13.9616V16.9665H10.4617V7.31006H16.9551V9.24297ZM15.8574 20.832H17.7532C18.0131 20.832 18.2576 20.7827 18.4866 20.6839C18.7156 20.5806 18.9161 20.4413 19.0879 20.2663C19.2595 20.0912 19.3936 19.887 19.4905 19.6536C19.5918 19.4157 19.6425 19.1642 19.6425 18.8994C19.6425 18.6345 19.5918 18.3851 19.4905 18.1517C19.3936 17.9139 19.2595 17.7073 19.0879 17.5322C18.9161 17.3572 18.7156 17.2202 18.4866 17.1214C18.2576 17.0182 18.0131 16.9665 17.7532 16.9665H15.8574V20.832Z" fill="#F4EEFC"/>
</svg>
